<svg width="32" height="32" viewBox="0 0 32 32" fill="none" xmlns="http://www.w3.org/2000/svg">
<path fill-rule="evenodd" clip-rule="evenodd" d="M32 4.51848C32 2.023 29.977 0 27.4815 0H4.51848C2.023 0 0 2.023 0 4.51848V27.4815C0 29.977 2.023 32 4.51848 32H27.4815C29.977 32 32 29.977 32 27.4815V4.51848ZM26.5104 13.9566C24.4458 13.9797 22.522 13.3556 20.8328 12.1996V20.3145C20.8328 23.9212 18.364 27.0193 14.873 27.8284C10.1103 28.915 6.07844 25.4703 5.56992 21.355C5.03816 17.2397 7.6628 13.633 11.6856 12.8238C12.4716 12.662 13.654 12.662 14.2639 12.8007V17.1472C14.0762 17.101 13.9005 17.0548 13.7156 17.0316C12.1434 16.7542 10.6207 17.5402 9.99648 18.9736C9.37228 20.4072 9.79008 22.0717 11.0616 23.0428C12.1251 23.8751 13.305 23.9906 14.5072 23.4357C15.7095 22.9041 16.3556 21.933 16.4943 20.6152C16.5174 20.4304 16.5161 20.2222 16.5161 20.0141V4.40824C16.5161 3.969 16.5196 3.98816 16.9588 3.98816H20.4036C20.658 3.98816 20.7506 4.02476 20.7736 4.32548C20.9585 7.00736 22.9947 9.29136 25.6072 9.6382C25.8846 9.6844 26.1819 9.70272 26.5104 9.7258V13.9566Z" fill="#F6BA00"/>
</svg>
