<svg width="555" height="281" viewBox="0 0 5548 2813" fill="none" xmlns="http://www.w3.org/2000/svg">
<path d="M2375.21 1731.27L2379.49 1735.74L2379.39 1740.1L2374.93 1744.38L2370.65 1739.91L2366.28 1739.82L2326.39 1765.15L2322.02 1765.06C2322.19 1757.34 2339.92 1746.08 2375.21 1731.27ZM2204.64 1736.26L2208.15 1775.66C2213.97 1775.79 2218.53 1767.15 2221.83 1749.75L2226.2 1749.84L2230.18 1767.41L2215.54 1837L2264.36 1803.12L2268.73 1803.21L2215.25 1850.1L2215.15 1854.47L2317.27 1782.43L2321.54 1786.9C2361.42 1755.73 2387.98 1740.29 2401.23 1740.58L2405.6 1740.68L2409.59 1758.25L2373.87 1792.42L2378.24 1792.51C2384.32 1780.99 2393.18 1775.36 2404.83 1775.62L2409.11 1780.08L2409.2 1775.71L2404.93 1771.25L2409.4 1766.98L2422.5 1767.27L2426.58 1780.47C2404.37 1790.32 2352.56 1827.05 2271.18 1890.65C2289.89 1934.03 2323.56 1993.03 2372.18 2067.65L2371.99 2076.39L2366.95 2106.86L2362.68 2102.4L2358.31 2102.3L2353.55 2119.67L2336.08 2119.29L2336.27 2110.55L2331.9 2110.46L2331.71 2119.19L2322.97 2119C2323.2 2108.81 2292.35 2054.24 2230.42 1955.3L2222.26 1928.9L2200.32 1932.79C2194.99 2002.73 2184.85 2046.2 2169.91 2063.2L2169.82 2067.57L2126.22 2062.24L2126.51 2049.14L2131.55 2018.67C2122.82 2018.47 2118.64 2009.64 2119.02 1992.17C2124.47 1963.16 2129.6 1948.71 2134.4 1948.82L2130.13 1944.35C2140.63 1864.48 2150.42 1816.63 2159.51 1800.81L2155.43 1787.61L2169.31 1752.96L2169.4 1748.59L2165.13 1744.13L2165.23 1739.76L2173.96 1739.96L2173.29 1770.53L2177.66 1770.62L2182.32 1757.62L2178.05 1753.15L2178.14 1748.79C2181.25 1740.12 2190.08 1735.94 2204.64 1736.26ZM2317.65 1764.96L2322.02 1765.06L2304.16 1782.14L2299.79 1782.05L2317.65 1764.96ZM2168.64 1783.53L2163.69 1809.64L2163.31 1827.11L2167.67 1827.21L2172.91 1788L2173 1783.63L2168.64 1783.53ZM2295.42 1781.95L2299.79 1782.05L2273.1 1803.31L2268.73 1803.21L2295.42 1781.95ZM2351.83 1800.67L2334.07 1813.39L2329.6 1817.66L2329.51 1822.03L2333.88 1822.12L2351.64 1809.4L2356.11 1805.13L2356.2 1800.77L2351.83 1800.67ZM2272.09 2047.97L2276.46 2048.07L2289.27 2061.46L2284.9 2061.36L2272.09 2047.97ZM2289.27 2061.46C2296.55 2061.62 2303.52 2076.34 2310.16 2105.61L2310.06 2109.98L2305.69 2109.88L2289.27 2061.46Z" fill="#F6BA00"/>
<path d="M2580.69 1729.02C2582.39 1737.8 2593.95 1742.42 2615.35 1742.89L2646.94 1896.51L2677.52 1897.19L2677.43 1901.55L2651.12 1905.34L2651.02 1909.71C2659.76 1909.9 2664.06 1912.91 2663.93 1918.73L2698.88 1919.5L2698.79 1923.87C2698.64 1930.42 2683.95 1935.92 2654.72 1940.38L2662.88 1966.77L2658.22 1979.78L2662.01 2006.08L2657.55 2010.35L2661.92 2010.45L2657.45 2014.72L2660.67 2067.22L2660.09 2093.43L2655.82 2088.96L2651.45 2088.87L2663.11 2154.66L2654.38 2154.47C2654.57 2145.74 2651.75 2141.31 2645.93 2141.18L2645.83 2145.55L2649.91 2158.74L2645.54 2158.65L2641.27 2154.18L2636.9 2154.09C2636.71 2162.82 2633.7 2167.13 2627.88 2167L2607.67 2092.27L2603.3 2092.18L2602.91 2109.65L2598.54 2109.55L2590.96 2056.95L2603.87 2065.97L2603.97 2061.61C2602.22 2035.35 2598.14 2022.15 2591.73 2022.01L2596.19 2017.74L2596.48 2004.64L2587.74 2004.45L2587.46 2017.55L2583.09 2017.45L2583.47 1999.98L2587.94 1995.71L2583.57 1995.62L2579.1 1999.89L2579.49 1982.42L2583.86 1982.51L2588.13 1986.98L2592.5 1987.07L2588.23 1982.61L2588.8 1956.41L2492.21 1976.13L2492.02 1984.86L2522.79 1976.8L2540.17 1981.55L2562.11 1977.67L2561.92 1986.4C2500.51 1995.97 2469.61 2009.86 2469.21 2028.06C2460.79 2059.91 2451.6 2080.1 2441.65 2088.62L2441.46 2097.36L2428.36 2097.07L2424.08 2092.61L2419.72 2092.51L2419.62 2096.88L2406.71 2087.85L2416.02 2061.84L2411.65 2061.75C2402.91 2061.55 2398.29 2073.1 2397.78 2096.4L2389.23 2087.47L2394.18 2061.36L2381.36 2047.97L2459.57 1870.55L2463.93 1870.64C2463.74 1879.38 2466.56 1883.81 2472.38 1883.94L2477.23 1862.2L2472.77 1866.47L2468.4 1866.37L2468.78 1848.9L2473.63 1827.16L2477.91 1831.62L2482.27 1831.72L2478 1827.26L2478.1 1822.89L2487.22 1805.61L2491.59 1805.71L2495.86 1810.17L2500.23 1810.27L2500.33 1805.9C2500.45 1800.08 2496.15 1797.07 2487.41 1796.88L2510.6 1736.22L2528.08 1736.6L2523.61 1740.87L2523.52 1745.24C2544.01 1734.04 2563.07 1728.63 2580.69 1729.02ZM2552.27 1828.89L2515.3 1919.84L2524.04 1920.03C2553.16 1920.67 2569.38 1912.29 2572.67 1894.88L2556.64 1828.99L2552.27 1828.89ZM2512.38 1854.23L2502.96 1884.61L2498.69 1880.15L2494.32 1880.05L2498.31 1897.61L2502.68 1897.71L2516.65 1858.69L2516.74 1854.33L2512.38 1854.23ZM2463.45 1892.48L2458.99 1896.75L2458.8 1905.48L2463.17 1905.58L2467.82 1892.57L2463.45 1892.48ZM2489.28 1910.52L2484.53 1927.9L2488.9 1927.99L2493.36 1923.72L2493.65 1910.62L2489.28 1910.52ZM2449.87 1914.03L2445.11 1931.4L2449.48 1931.5L2458.61 1914.22L2449.87 1914.03ZM2523.85 1928.76L2523.75 1933.13L2532.49 1933.32C2558.77 1930.99 2571.97 1926.91 2572.1 1921.08L2567.73 1920.99L2523.85 1928.76ZM2582.9 2026.19L2591.63 2026.38L2591.06 2052.58L2586.69 2052.49L2582.9 2026.19ZM2643.38 2058.1L2643.19 2066.84L2647.18 2084.4L2651.55 2084.5L2651.74 2075.76L2647.75 2058.2L2643.38 2058.1ZM2599.41 2070.24L2599.22 2078.98L2612.42 2074.9L2612.61 2066.17L2599.41 2070.24Z" fill="#F6BA00"/>
<path d="M3011.2 1749.63L3024.21 1754.28L3024.02 1763.02L3010.92 1762.73L3019.36 1776.02C3012.64 1790.44 2989.18 1797.21 2948.98 1796.32L2918.31 1800.02L2913.65 1813.02L2918.02 1813.12C2908.83 1833.6 2889.3 1926.38 2859.44 2091.47L2871.3 2148.54L2866.93 2148.44C2860.38 2148.3 2854.87 2133.61 2850.42 2104.38L2855.75 2060.81L2855.84 2056.44L2851.48 2056.34L2851.28 2065.08C2842.55 2064.89 2838.11 2067.7 2837.98 2073.52L2837.89 2077.89L2845.09 2147.96L2844.99 2152.33L2836.25 2152.14L2819.07 2138.65L2814.6 2142.92L2810.23 2142.82C2799.14 2117.53 2793.79 2095.56 2794.2 2076.93L2798.47 2081.39L2802.84 2081.49L2794.78 2050.73L2807.98 2046.65L2808.46 2024.81L2799.72 2024.62L2799.82 2020.25C2808.56 2020.44 2812.99 2017.63 2813.12 2011.81L2813.21 2007.44L2804.48 2007.25C2804.99 1983.95 2809.61 1972.4 2818.35 1972.6L2819.6 1915.82C2824.35 1911.85 2830.85 1881.41 2839.09 1824.49L2808.42 1828.19L2747.35 1822.48L2747.45 1818.11L2769.39 1814.22L2769.29 1818.59L2773.76 1814.32L2839.29 1815.76L2839.57 1802.66L2769.48 1809.85L2765.21 1805.39L2760.84 1805.29L2734.53 1809.09L2721.62 1800.06L2726.47 1778.32L2722.2 1773.86C2722.52 1759.3 2740.15 1752.41 2775.1 1753.18L3011.2 1749.63ZM2984.7 1762.15L2984.61 1766.52L3002.08 1766.91L3002.18 1762.54L2984.7 1762.15ZM2817.68 2003.17L2806.83 2099.06L2815.56 2099.25L2811.68 2077.32L2811.87 2068.58L2820.89 2055.67L2816.53 2055.58L2820.99 2051.3L2821.09 2046.94L2816.81 2042.47L2816.91 2038.11L2826.03 2020.83L2822.05 2003.26L2817.68 2003.17Z" fill="#F6BA00"/>
<path d="M3034.08 1762.8L3060.41 1767.97L3148.1 1765.31L3256.83 1800.03L3256.63 1809.21L3260.89 1813.89L3256.42 1818.38L3252.06 1818.28L3251.95 1822.87L3260.69 1823.06L3269.63 1814.08L3274 1814.18L3273.6 1832.52L3098.22 2035.99L3124.43 2036.57L3150.97 2032.34C3187.02 2042.46 3210.02 2056.8 3219.95 2075.37L3224.54 2075.47L3224.14 2093.81L3214.98 2103.01L3210.61 2102.91L3188.97 2093.04L3193.23 2097.94L3193.04 2106.89L3158.28 2097.17L3145.18 2096.88C3116.93 2096.26 3078.72 2104.6 3030.55 2121.89L3004.84 2098.39L3018.76 2061.77L3010.22 2052.41L3010.63 2034.06C3032.99 1997.71 3046.57 1979.58 3051.38 1979.69L3055.65 1984.37L3060.12 1979.88L3060.22 1975.29L3055.85 1975.2C3056.05 1965.88 3061.98 1961.35 3073.63 1961.61L3091.61 1939.06L3087.34 1934.38L3100.65 1925.5L3104.92 1930.18C3131.89 1889.85 3149.91 1868.76 3158.98 1866.92L3158.88 1871.51L3109.19 1934.86L3113.56 1934.96L3190.07 1844.45L3185.7 1844.35L3167.92 1857.94L3163.66 1853.04L3163.76 1848.45L3168.23 1843.97L3124.22 1847.59L3071.79 1846.43C3058.11 1839.29 3048.08 1828.36 3041.7 1813.66L3041.8 1809.07L3050.84 1795.51C3046.38 1779.97 3039.27 1772.09 3029.51 1771.88L3033.98 1767.39L3034.08 1762.8ZM3144.25 1940.22L3117.12 1971.74L3121.49 1971.83L3148.62 1940.32L3144.25 1940.22ZM3091.31 1952.82L3068.85 1980.07L3073.22 1980.17L3095.68 1952.92L3091.31 1952.82ZM3112.64 1976.45L3090.19 2003.48L3094.56 2003.58L3117.01 1976.54L3112.64 1976.45Z" fill="#F6BA00"/>
<path d="M653.128 1333.32C674.256 1332.44 718.944 1304.02 787.191 1248.04L792.909 1255.69L742.266 1297.23L747.984 1304.87C808.273 1255.43 858.172 1239.17 897.682 1256.11L908.756 1271.7L872.583 1301.37L878.3 1309.02L934.661 1275.13L940.378 1282.78L896.97 1318.38L902.326 1326.32C916.795 1314.45 927.842 1313.62 935.466 1323.81C849.614 1394.23 799.27 1488.97 784.434 1608.05L790.152 1615.7C904.352 1564.39 1024.87 1560.12 1151.72 1602.89L1157.08 1610.83C1191.96 1688.72 1191.4 1787.87 1155.39 1908.28L1117.34 1951.82L1123.06 1959.47L1137.53 1947.6C1147.95 1961.67 1115.86 2012.66 1041.25 2100.58L1029.81 2085.29L1065.99 2055.62L1060.63 2047.68C1029.76 2072.99 987.602 2078.78 934.152 2065.05C900.627 2071.99 869.752 2056.19 841.526 2017.66L851.794 1984.57L884.934 1982.06L899.403 1970.19C1017.82 1836.88 1051.52 1735.23 1000.5 1665.23C919.274 1682.5 869.374 1698.76 850.805 1713.99L856.523 1721.63L761.305 1750.38L774.258 1752.09L785.693 1767.39C688.358 1771.55 630.688 1761.28 612.681 1736.58L584 1587.4L597.665 1526.84L609.1 1542.14L653.128 1333.32ZM718.517 1612.77L724.235 1620.41L785.054 1434.84L831.858 1371.78L820.423 1356.49L805.954 1368.35C753.419 1459.96 724.274 1541.43 718.517 1612.77ZM1007.92 1881.19L1015.16 1875.26L1018.19 1848.1L1010.96 1854.03L1007.92 1881.19ZM1138.15 1774.39L1137.44 1836.65L1144.67 1830.72L1145.38 1768.45L1138.15 1774.39ZM1096.35 1907.36L1102.07 1915L1109.3 1909.07L1121.45 1862.1L1096.35 1907.36ZM1056.43 2026.45L1062.15 2034.1L1091.09 2010.36L1121.54 1973.05L1115.82 1965.4L1108.59 1971.33L1056.43 2026.45Z" fill="#F6BA00"/>
<path d="M988.273 1079.87L1013.64 1067.73L1043.18 1106.35C1060.1 1098.26 1064.34 1085.67 1055.9 1068.6L1064.36 1064.56L1089.71 1073.53L1106.55 1128.79L1115.01 1124.74L1110.77 1137.32L1114.99 1145.86L1127.66 1150.34L1131.88 1158.88L1123.42 1162.92L1136.1 1167.41L1140.31 1175.95L1271.02 1461.64L1275.24 1470.17L1283.69 1466.13L1266.89 1368.63L1283.81 1360.54L1304.73 1551.04L1321.65 1542.94L1279.75 1204.18L1262.83 1212.28L1283.83 1339.42L1266.92 1347.52L1262.7 1338.98L1254.42 1174.09L1262.88 1170.04L1271.31 1187.11L1330.53 1137.65C1357.3 1135.39 1372.79 1138.53 1377.01 1147.07L1381.25 1134.48L1406.62 1122.34L1541.66 1310.98L1550.11 1306.93C1537.6 1281.61 1509.54 1113.7 1465.92 803.204L1474.37 799.156L1495.48 820.712L1503.94 816.664L1495.5 799.595L1503.96 795.546C1545.68 775.575 1572.45 773.314 1584.26 788.764L1592.7 805.834L1588.44 839.534L1592.65 848.069L1609.57 839.973L1588.5 776.181L1605.42 768.085L1630.76 777.058L1634.98 785.592L1773.84 1548.09L1752.69 1568.77L1744.26 1551.7L1740.02 1564.29L1731.56 1568.33L1718.89 1563.85C1730.13 1586.61 1727.3 1602.03 1710.38 1610.13C1663.45 1628.02 1636.69 1630.28 1630.08 1616.91L1638.54 1612.86C1618.84 1587.11 1597.73 1572.6 1575.19 1569.31L1448.59 1397.74C1439.14 1402.62 1444.68 1498.47 1465.18 1685.3L1443.99 1748.21L1435.53 1752.26L1410.21 1722.17C1425.34 1536.92 1415.62 1404.38 1381.05 1324.54C1373.56 1346.77 1379.08 1449.66 1397.62 1633.21C1390.57 1636.58 1396.17 1676.12 1414.4 1751.82L1338.29 1788.25L1312.96 1758.16L1308.73 1770.75L1300.27 1774.8C1285.09 1744.07 1265.38 1725.36 1241.16 1718.66L1224.29 1684.52L1270.77 1693.93L1182.17 1556.94L1186.41 1544.36L1173.73 1539.87L1177.97 1527.29L1169.52 1531.34L1173.76 1518.75L1114.72 1399.27L1102.09 1352.55L1093.63 1356.59L1097.87 1344.01L988.227 1122.11L975.554 1117.62L971.337 1109.09L988.273 1079.87ZM1487 845.878C1533.03 1147.13 1563.91 1313.69 1579.65 1345.55L1583.87 1354.09L1592.33 1350.04L1503.91 837.781L1487 845.878ZM1634.77 1181.98L1655.81 1266.89L1660.03 1275.42L1668.48 1271.37L1647.44 1186.46L1643.23 1177.93L1634.77 1181.98ZM1685.24 1411.1L1706.28 1496.01L1714.71 1513.08L1723.17 1509.03L1697.91 1415.59L1693.7 1407.05L1685.24 1411.1Z" fill="#F6BA00"/>
<path d="M2120.26 697.368C2192.71 683.619 2265.06 692.404 2337.3 723.725L2329.99 734.762L2331.93 744.043L2380.56 792.712L2362.06 796.223L2350.87 788.696L2341.62 790.452L2412.01 989.382L2421.26 987.627C2414.8 956.688 2417.73 940.049 2430.07 937.708L2437.82 974.835C2445.12 1009.8 2431.09 1096.09 2395.73 1233.71L2404.98 1231.95C2374.04 1300.23 2320.93 1368.2 2245.64 1435.88L2201.33 1453.94L2192.08 1455.7C2045.64 1483.49 1940.88 1442.26 1877.79 1332L1829.16 1283.33L1836.47 1272.3L1813.66 1209.08L1809.78 1190.52C1799.05 1139.16 1829.65 1040.07 1901.55 893.265L1903.49 902.547C1870.96 972.406 1848.18 1047.49 1835.15 1127.81L1837.08 1137.09L1846.33 1135.33C1849.91 1040.41 1909.24 910.14 2024.34 744.52L1967.35 793.933L1958.1 795.689C1952.15 767.225 2006.21 734.451 2120.26 697.368ZM2106.97 863.932L2095.78 856.406L2097.72 865.687L2108.9 873.214L2055.79 941.19C2004.61 950.902 1973.38 1046.89 1962.08 1229.16C1972.42 1278.66 2009.21 1316.71 2072.46 1343.31L2081.71 1341.55C2149.22 1328.74 2211.44 1242.95 2268.35 1084.19C2285.03 1010.59 2290.11 958.158 2283.58 926.91L2268.07 852.657C2264.52 835.64 2231.11 829.116 2167.83 833.082L2158.58 834.837L2151.27 845.874L2142.02 847.629L2140.08 838.348L2106.97 863.932ZM2381 840.876L2399.5 837.365L2409.19 883.774L2390.69 887.284L2381 840.876ZM1930.63 1032.49L1914.51 1093.45L1923.76 1091.69L1939.87 1030.73L1930.63 1032.49ZM2302.96 1019.73L2285.35 1119.56L2313.1 1114.3L2327.28 1044.06L2312.21 1017.97L2302.96 1019.73ZM2375.46 1044.57L2372.02 1074.17L2375.9 1092.73L2385.15 1090.97L2386.65 1052.09L2384.71 1042.81L2375.46 1044.57ZM1837.53 1185.25L1853.03 1259.5L1862.28 1257.75L1846.78 1183.5L1837.53 1185.25ZM2278.04 1130.6L2250.74 1184.03L2259.98 1182.27L2287.29 1128.85L2278.04 1130.6ZM2024.72 1390.96L2026.66 1400.25L2078.71 1419.31L2076.78 1410.03L2024.72 1390.96Z" fill="#F6BA00"/>
<path d="M2634.27 646.872C2646.87 647.454 2652.67 666.616 2651.67 704.361L2670.56 705.233L2699.4 687.669L2708.59 697.541L2647.34 1223.78C2687.83 1206.76 2795.48 1189.68 2970.28 1172.55L2979.72 1172.99L2979.47 1182.43C2758.1 1208.11 2647.14 1231.33 2646.59 1252.09L2751.25 1228.58L2751 1238.01L2931.49 1208.55L2931.24 1217.99L2940.94 1208.99L2950.38 1209.43L2959.58 1219.3L3007.06 1212.04L3044.85 1213.79L3110.72 1226.28L3110.47 1235.71C3109.97 1254.58 3062.32 1268.13 2967.52 1276.35L2967.27 1285.79L2976.97 1276.79L2986.42 1277.22L3052.29 1289.71L3061.99 1280.71L3061.24 1309.02L2747.5 1370.12L2547.12 1436.45L2518.78 1435.14L2482.25 1386.22L2472.8 1385.78L2473.05 1376.35C2473.47 1360.62 2486.31 1351.77 2511.59 1349.78L2512.34 1321.47L2485 1282.42L2534.05 859.542L2543.5 859.978L2542.5 897.722L2531.3 963.339L2550.19 964.211L2528.04 1086.01L2537.24 1095.88L2526.79 1133.19L2525.54 1180.37L2534.99 1180.8L2586.04 682.436C2598.64 683.018 2605.18 673.872 2605.68 655L2615.38 646L2634.27 646.872Z" fill="#F6BA00"/>
<path d="M3322.27 719.983C3334.51 723.196 3336.17 743.07 3327.25 779.604L3345.61 784.424L3377.62 773.386L3384.58 784.93L3213.75 1284.36C3257.08 1276.3 3366.36 1282.3 3541.58 1302.36L3550.76 1304.77L3548.53 1313.91C3325.79 1292.38 3211.97 1291.67 3207.06 1311.76L3314.76 1310.87L3312.53 1320L3495.93 1329.26L3493.69 1338.39L3505.11 1331.67L3514.29 1334.08L3521.24 1345.62L3569.39 1348.54L3606.12 1358.18L3668.17 1384.18L3665.94 1393.31C3661.48 1411.58 3611.84 1414.75 3517.04 1402.83L3514.81 1411.97L3526.23 1405.24L3535.41 1407.65L3597.46 1433.65L3608.87 1426.93L3602.18 1454.33L3281.3 1447.87L3070.62 1470.33L3043.07 1463.1L3017.49 1407.8L3008.31 1405.39L3010.54 1396.25C3014.26 1381.03 3028.73 1375.11 3053.96 1378.49L3060.65 1351.09L3042.03 1307.33L3179.14 905.956L3188.32 908.365L3179.4 944.9L3154.6 1006.42L3172.96 1011.24L3125.6 1125.16L3132.55 1136.7L3114.45 1170.83L3103.3 1216.5L3112.48 1218.91L3267.43 744.467C3279.67 747.681 3288.03 740.154 3292.49 721.886L3303.9 715.163L3322.27 719.983Z" fill="#F6BA00"/>
<path d="M4317.41 1114.19L4344.64 1162.84C4308.63 1206.67 4275.47 1219.82 4245.17 1202.28L4017.41 1101.34L4008.39 1117.79L4049.15 1141.77L4103.16 1162.4L4106.77 1175.71L4115.08 1180.38L4177.42 1205.69L4193.85 1215.45L4189.34 1223.67L3981.19 1145.59L3912.76 1246.58L3921.08 1251.25L4161.67 1348.63L4165.06 1361.32L4160.55 1369.54L4144.12 1359.78L4139.61 1368.01L4192.29 1409.97L4187.79 1418.19C4160.05 1443.46 4066.2 1428.28 3906.24 1372.66L3819.16 1332.93L3822.97 1345.82L3729.79 1432.38L3721.48 1427.71L3763.33 1354.32L3755.01 1349.65L3681.65 1458.65C3862.71 1520.95 3987.16 1571.98 4055.02 1611.73L4091.27 1643.93L4082.25 1660.38L4065.82 1650.62L4069.2 1663.3L4055.25 1687.76C4028.72 1701.07 3989.71 1692.8 3938.21 1662.95L3933.28 1670.96L3999.42 1709.16L3989.98 1725.4L3565.28 1585.48L3556.97 1580.81C3531.7 1560.89 3522.55 1544.82 3529.53 1532.58L3543.48 1508.12L3611.2 1428.25L3607.39 1415.36L3624.03 1424.7L3600.64 1465.4L3608.75 1470.49C3625.77 1444.06 3639.04 1433.75 3648.58 1439.55L3644.97 1426.23L3691.55 1345.25L3675.12 1335.49L3643.61 1371.1L3656.66 1368.18L3664.98 1372.85L3637.08 1421.78L3628.97 1416.69L3642.71 1392.64L3634.6 1387.55L3625.15 1403.79L3616.84 1399.12L3626.28 1382.88L3721.91 1254.09L3713.59 1249.42L3752.99 1218.27L3749.6 1205.59L3754.11 1197.36L3841.42 1063.9L3845.23 1076.8L3853.34 1081.89L3862.36 1065.44L3877.64 1019.64L3927.6 951.346L3941.56 926.883L3949.67 931.974L3953.48 944.868L3966.31 941.312L3974.42 946.404L3978.23 959.298L3991.06 955.742L4015.61 970.593L4317.41 1114.19ZM3712.46 1270.33L3679.63 1327.27L3687.95 1331.94L3720.58 1275.42L3712.46 1270.33ZM3988.61 1421.04L3996.93 1425.7L3992 1433.72L3829.96 1371.82L3826.35 1358.5L3831.08 1350.91L3909.85 1385.97L3904.91 1393.99L3988.61 1421.04Z" fill="#F6BA00"/>
<path d="M4591.16 1312.45L4607.02 1398.38C4618.89 1383.92 4629.73 1380.74 4639.53 1388.84L4646.89 1394.92L4536.14 1740.34L4524.27 1754.81L4516.91 1748.73L4537.82 1693.19L4530.47 1687.11L4518.6 1701.57L4469.16 1867.05L4476.51 1873.13C4599.01 1763.98 4734.63 1656.38 4883.39 1550.32L4893.57 1583.02L4921.57 1594.02L4947.88 1652.18L4941.94 1659.41C4927.23 1647.25 4911.97 1650.82 4896.14 1670.1L4903.49 1676.18L4904.91 1689.49L4912.26 1695.57L4949.29 1665.48L4964 1677.64L4958.06 1684.87L4944.78 1686.03L4946.19 1699.33L4940.26 1706.57C4812.08 1787.55 4647.81 1920.03 4447.45 2104L4432.74 2091.85L4542.42 1988.29C4532.62 1980.19 4480.32 2013.84 4385.52 2089.23C4355.51 2088.71 4332.42 2081.76 4316.25 2068.39L4304.37 2082.85L4297.02 2076.78C4304.94 2067.13 4299.09 2054.21 4279.48 2038.01L4321.03 1987.38C4338.84 1965.69 4388.75 1804.64 4470.76 1504.25L4463.41 1498.17C4373.36 1567.78 4261.23 1669.31 4127.02 1802.76L4125.6 1789.45C4089.27 1773.58 4064.67 1773.48 4051.81 1789.15L4037.1 1777C4042.14 1750.81 4062.96 1715.43 4099.56 1670.83L4092.21 1664.75L4038.79 1729.84L4024.08 1717.68L4046.41 1675.45C4154.04 1544.31 4314.04 1409.52 4526.41 1271.07L4591.16 1312.45ZM4339.83 1408.17L4333.89 1415.4L4335.31 1428.71L4322.02 1429.87L4310.15 1444.33L4317.5 1450.41L4348.6 1427.56L4347.18 1414.25L4339.83 1408.17ZM4524.27 1754.81C4537.01 1765.34 4530.99 1792.73 4506.19 1836.97L4500.26 1844.2L4492.9 1838.13L4524.27 1754.81Z" fill="#F6BA00"/>
</svg>
